<svg id="Layer_1" data-name="Layer 1" xmlns="http://www.w3.org/2000/svg" width="13.9in" height="13.9in" viewBox="0 0 1000 1000"><title>chocolate-icon</title><path d="M105.1,278.5c3.7-.7,7.1-2.6,10.9-2.7a207.5,207.5,0,0,1,98.4,20.8c43.9,21,79.6,58.1,99.6,102.4,2.5,5.4,4.9,10.8,6.9,16.4a210.5,210.5,0,0,1,76.5-85A207.5,207.5,0,0,1,521,298.5c49,2.7,96.5,23.7,131.9,57.6,17.8,17.5,33.3,37.7,43.7,60.5,17.8-52.4,57.8-96.6,107.7-120.4,30.7-14.5,64.9-22.2,98.9-20.1,3.9.2,7.3,2.5,10.8,3.8a83.4,83.4,0,0,1,38.7,31.4c21.5,31.6,21,76.4-1.4,107.4a92.5,92.5,0,0,1,28.2,39.8c11.1,30.7,5.8,67.5-15.6,92.5,17.5,23,23.4,54,16.1,81.8-6.4,25.4-24.2,48.3-48.6,58.5-3.7,1.9-8,2-11.5,4.3s-9.2,2.1-13.8,2.5c-15,1.5-30-.3-44.9-2-55-8.4-105.9-40.4-137.9-85.8a249,249,0,0,1-17.4-29,212.2,212.2,0,0,1-62.2,90.1,209.7,209.7,0,0,1-92.5,45.4c-9.9,2.2-20,2.7-30.1,3.6s-21.7.4-32.5-.6c-38-2.9-74.6-17.9-105.2-40.5-14.1-11.1-27.7-23.2-38.5-37.6a206.4,206.4,0,0,1-33.6-60.5c-14.7,30.5-37.3,57.1-64.5,77.2-30.8,22.4-67.7,36.8-105.7,39.2-9,.6-18.1,1.6-27.2.6-5.8-.7-11.6-.4-17.3-.7a78.9,78.9,0,0,1-41.1-21.3c-25.6-24.7-33.9-64.8-22-98.1a77.1,77.1,0,0,1,11.2-22c-15-16-23.1-37.7-24.2-59.4q.3-6,.2-12c2-26.1,15.4-51.4,36.8-66.9a94.8,94.8,0,0,1-15.7-58c1.5-21.3,9.6-42.5,24.4-58,10.4-11.3,23.9-20.3,39-23.5M90.4,321.5C77.6,333.9,71.6,352.4,73,370c1.3,13.8,6.1,27.8,15.8,37.9a15.6,15.6,0,0,1,4.7,13c-.4,4.9-4,8.4-5.9,12.7s-6.6,6.1-10.4,8.5c-11.8,7.6-19.6,20-23.6,33.2-2.1,7-2.1,14.3-1.9,21.6,1,15.7,7.3,31.6,19.4,41.9,3.6,3.4,8.7,5.4,11.1,9.9a15.5,15.5,0,0,1-2.6,18.7c-2.3,2.4-5.6,3.6-8.7,4.5-2.7,5.4-6.3,10.3-8,16.2-7.5,20.6-3.6,45,10.2,62,7.3,7.7,16.2,14.8,26.9,16.7,6.3,0,12.6.6,18.9,1s11.8-.3,17.6-.6c37.7-2,74.2-17.5,102.7-42.1a181.7,181.7,0,0,0,57.6-93c-29.5,15.8-62.3,25.6-95.8,27.7-5.2.2-10.9,1.5-15.7-1.1a15.4,15.4,0,0,1,5.6-29.2,290.6,290.6,0,0,0,31-3.3,209.8,209.8,0,0,0,77.5-31.7c.3-3.3.6-6.6.9-9.8-5.1-5.9-11.1-11-17.1-15.9-26-21.7-58-35.6-91.2-42.1-8.2-1.5-13.8-10.5-11.7-18.6s10.6-13.6,18.6-11.5c34.8,6.9,68.3,21.2,96.7,42.5-3.1-10.3-6.4-20.7-11.2-30.4A181.3,181.3,0,0,0,235,346.1a177.8,177.8,0,0,0-114-39.4c-11.2,2-22.8,6-30.6,14.8m784.5-13.4c-32.8,3.1-64.4,16.3-90.3,36.6A179.7,179.7,0,0,0,725,428.9c22.4-12.9,46.6-23,72.1-27.9a15.4,15.4,0,0,1,13,3.3c6.2,5,7.4,15,2.4,21.3-3.4,4.9-9.6,6-15,7-13.6,3.7-27.1,7.7-39.7,14.1a197.9,197.9,0,0,0-41.9,26.3c.2,8.5,2.1,16.8,2.2,25.3a206.6,206.6,0,0,0,87.9,34.4c6.5,1.1,14.3,0,19.4,5.1,7.1,6.2,6.3,18.8-1.6,24-5.4,4.2-12.6,2.6-18.8,2A239.6,239.6,0,0,1,722,537a176.2,176.2,0,0,0,14,35c8.7,15.7,18.8,30.7,31.6,43.3,7.3,6.8,14.5,13.6,22.7,19.3,26.2,18.7,57.5,30.8,89.8,32.6a136.6,136.6,0,0,0,30.8-.4c5.3-2.8,11-4.8,15.9-8.2,11.3-7.2,19-19.2,22.7-31.9a65.8,65.8,0,0,0-3.9-46.5c-3.2-6.7-8-12.5-12.8-18.2a15.5,15.5,0,0,1-4.8-16.2c.9-3.8,3.8-6.6,6.7-9.1,8.4-7.3,13.7-17.6,16.8-28.2,6.5-22.4-.4-48.6-18.3-63.9-3.7-3.6-8.4-5.7-12.7-8.3-7-4.2-10.1-14-6.5-21.4,1.6-3.5,4.8-5.8,7.4-8.6,9.9-10.7,15.4-25.1,16-39.6,1.1-21.8-9.5-44.7-29-55.4-4.6-2.1-9.2-5-14.4-4.5s-12.7.6-19.1,1.1M440.7,342.7c-33.1,13.5-61.5,37.5-81.2,67.3A44,44,0,0,1,378,420c12.5,10.6,20.1,25.8,33.2,35.8,6.7,5.4,15.5,9,24.2,6.9,10.8-2.8,19-11,26.1-19.1,8.4-10.2,16.2-21.3,27.7-28.3,8-5.1,18.3-7.2,27.5-4.2,11.8,3.9,21,13,28.7,22.4s16.4,20.8,28.2,26.8a27.1,27.1,0,0,0,24.6,0c12.9-6.5,21.6-18.5,30.4-29.6,7.7-9.1,16.5-18.6,28.5-21.4a198.3,198.3,0,0,0-28.8-33.7,189.6,189.6,0,0,0-47.8-31.2c-43.8-19.6-95.7-20.4-139.9-1.7m213.4,94.4c-7.9,4.1-13.5,11.2-19,17.9-8.6,11-17.8,22.1-30,29.2-8.1,4.8-18,7-27.2,4.5-12.1-3-21.8-11.6-30.2-20.5s-16.6-23.1-29.3-29.5a23.4,23.4,0,0,0-23,.7c-12.4,7-19.4,20-29.1,30-7.9,8.3-17.1,16.2-28.4,19.1-9,2.4-18.7.1-26.6-4.7-13.2-7.9-22.5-20.3-32-32.1-6.4-7.3-14-15.3-24.3-15.9-3.7.1-8.1.7-10.8,3.4-7.3,16.5-11.4,34.4-13.5,52.3,6.5-5.8,14.5-10.6,23.5-10.7s16.8,4.4,23.3,9.9c13,10.7,20.7,26.5,34.3,36.6,6.8,5.4,16,8.9,24.7,6.3,11.7-3.6,20.3-13.1,27.9-22.2s16.8-21.2,28.9-27.1a31.5,31.5,0,0,1,25.7-1.2c12.2,4.8,21.2,14.8,29.1,24.9s16.1,19.5,27.7,24.4c8,3.5,17.4,2.4,24.7-2,13.2-7.5,21.6-20.5,31.2-31.8,7.2-7.8,15.4-16.2,26.4-18s19.3,4.7,26.4,11.3c-.3-7,.7-14.2-1.2-21.1-2.5-10-5-20.1-9.4-29.5-4.6-5.5-13.2-7.6-19.7-4.1M330.2,522c.5,12.3,3.3,24.2,6.1,36.1,5.6-3.6,12-6.4,18.7-6.1,8.9.2,16.8,5,23.3,10.7,11.2,9.5,18.4,22.8,29.4,32.5,6.1,5.5,13.7,10.5,22.3,10.5s16.2-4.9,22.4-10.3c12.2-10.6,19.8-25.6,33.1-35.1,8.3-6.3,19.2-10.1,29.5-7.3,12.4,3.2,21.9,12.6,29.9,22.2s16.9,21.7,29.2,27.8a27.2,27.2,0,0,0,25.2-.7c13.4-7.2,22-20.1,31.5-31.5,7.2-8,15.3-16.5,26.2-18.9,8.6-1.8,17,2.5,23.5,7.7a186.1,186.1,0,0,0,6-32.7c.3-2-1.6-3.4-2.6-4.9-5.2-5.8-10.6-12.2-18.2-14.8s-12.8.8-17.6,4.9c-10.9,9.2-17.9,21.9-28.2,31.6s-20.6,17-33.9,17.1-24.8-8.1-33.9-17c-11-10-17.9-24.2-30.7-32.3-6.7-4.5-15.7-5.9-23.1-2.4-10.4,4.7-17.6,14-24.5,22.8-8.5,10.4-18.2,20.7-30.8,26a33.8,33.8,0,0,1-29.4-1.7c-14.4-7.7-24.4-21-34.4-33.5-6.4-7.2-14-15.3-24.2-15.9s-18.3,7.9-24.8,15.1m14,58.9c5.1,11.7,11,23.1,18.6,33.4,20.9,30.2,51.6,53.3,86.1,65.8,20.1,7.5,41.8,10.2,63.1,10.2,14.1-1,28.3-1.8,41.9-5.7A179,179,0,0,0,672.5,582c-3.4-2.3-7.3-4.4-11.5-4.2s-10.7,3.6-14.8,7.4c-10.2,9.5-17.3,21.9-27.6,31.2S598,632.5,585,632.1s-25.3-9.2-34.6-18.6-16.7-22.6-28.6-30.4c-6.5-4.6-15.3-6.3-22.8-3.1-10.1,4.2-17.3,12.9-23.8,21.2s-16.1,19-26.8,25.2c-7.8,4.6-17.3,6.7-26.2,4.3-11.7-3.1-21.1-11.4-29.1-20-9.7-10.2-16.7-23.5-29.5-30.3C357.6,577.1,350.1,577.7,344.2,580.9Z" fill="#f51d4e"/></svg>