<svg id="Layer_1" data-name="Layer 1" xmlns="http://www.w3.org/2000/svg" width="13.9in" height="13.9in" viewBox="0 0 1000 1000"><title>chocolate-icon</title><path d="M133.6,318.6c8.4-2.3,17.8,3.4,19.5,12s-3.7,17.6-12.2,19.2-18-4.3-19.2-13.1A16.1,16.1,0,0,1,133.6,318.6Z" fill="#f51d4e" opacity="0.3"/><path d="M83.9,443a16.1,16.1,0,0,1,18.5,11.7c1.8,7.7-1.7,17-9.1,20.5a16.1,16.1,0,0,1-19.9-5C66.4,460.8,72.2,445,83.9,443Z" fill="#f51d4e" opacity="0.3"/><path d="M99.2,608.7c9.5-3.8,21,3.8,21.3,14s-11,20.2-21.5,17.4a16,16,0,0,1-11.9-16.2C87.2,616.8,92.7,610.8,99.2,608.7Z" fill="#f51d4e" opacity="0.3"/><path d="M83.8,272.9c5.1-1,10-3.2,15.2-3.7a216.3,216.3,0,0,1,170.8,74.1c18.2,20.6,32.1,44.9,41.7,70.6a218.9,218.9,0,0,1,91.7-95.4,215.4,215.4,0,0,1,221.8,9.7c24.9,16,45.8,37.7,62.2,62.2,5.1,8,10.1,16,13.8,24.8,18.1-53.4,58.5-98.5,108.9-123.5a215.5,215.5,0,0,1,49.2-17.4,183.7,183.7,0,0,1,57.9-4.5c10.3,3.7,20.6,8,29.2,14.9,24.1,17.9,37.4,48.3,36.6,78A97.3,97.3,0,0,1,965,417.4a98.6,98.6,0,0,1,13,137.3c19.8,25.7,25.1,61.4,14.5,92-8.4,25-27.9,46.9-53.2,55.3-4.7.7-8.2,4.4-12.9,4.7-11.4,1-22.9,1.8-34.4.6-64.4-3-125.8-37.9-162.9-90.3a240.3,240.3,0,0,1-18.5-30.9,220.2,220.2,0,0,1-57.4,87.2,217,217,0,0,1-97.2,52c-14.5,3.7-29.5,4.4-44.3,5.6-24.5.2-49.2-2.6-72.5-10.4-35.9-11.7-68.4-33.1-93.9-60.9-19-21.5-34.3-46.4-43.7-73.5A217.1,217.1,0,0,1,146.7,704.3c-12,2-24.1,2.8-36.3,3.6-9,.5-17.9-1.4-26.9-1-6.5.2-12.7-1.9-18.7-4-11.9-4.7-23.1-11.7-31.6-21.4C2.8,649.4-.5,595.8,25.1,560,7.4,541.1-1.3,514.7.2,489.1c.1-14.3,4.4-28.4,11.1-41S27.1,425,38.2,416.7a98.4,98.4,0,0,1-15.7-66.5c2.1-14.7,6.8-29.2,15.1-41.6,10.9-16.4,27.1-30,46.2-35.6M98,302.5c-9.5,2.3-18.9,6.5-25.5,13.9C59.2,329.3,53,348.6,54.4,366.8c1.3,14.3,6.3,28.8,16.4,39.3a16.2,16.2,0,0,1,4.9,13.4c-.4,5-4,8.8-6.1,13.2s-6.4,6.2-10.1,8.5c-13.7,8.6-22.6,23.5-26.1,39.1-3.7,21.4,1.6,45.5,18.1,60.6,4.1,4.2,10.3,6.4,12.9,11.9a16.1,16.1,0,0,1-3.1,18.7c-2.4,2.5-5.8,3.7-9,4.6-3,5.8-6.8,11.2-8.5,17.5-7.4,21.1-3.3,46.2,10.9,63.6,7.6,8,16.8,15.4,27.9,17.3,10.4-.2,20.7,2.1,31.1,1,8.7-.6,17.4-1.2,26-2.6a183.3,183.3,0,0,0,92.7-46.4,188.2,188.2,0,0,0,54.2-91.5c-33.6,18-71.5,28.5-109.6,29.2-8.1-.3-15-7.8-14.8-15.9a16,16,0,0,1,14.7-15.9,298.7,298.7,0,0,0,32-3.5,217.3,217.3,0,0,0,80.4-32.9c.3-3.4.6-6.8,1-10.2-29.4-31.4-69.4-51.7-111.4-60a16,16,0,0,1-5.8-29.5c4.2-2.7,9.5-2.7,14.2-1.5,35.3,7.4,69.2,22,98.1,43.7-3.3-10.7-6.7-21.5-11.7-31.6a188.3,188.3,0,0,0-50.7-64.4,184.3,184.3,0,0,0-107.3-41c-5.9-.2-11.9-.9-17.6,1.2m784.6.4c-30.4,3.5-59.7,15.3-84.5,33.1-31.3,22.7-55.6,55-67.8,91.8,23.5-13.5,48.9-24.2,75.7-29.1,8.1-1.4,16.5,4.6,17.9,12.6s-4,17.4-12.4,18.9c-33.1,7.1-64.6,21.7-90.8,43.2.2,7.3,1.8,14.5,2,21.8.3,1.9-.3,4.6,1.9,5.6a214,214,0,0,0,101.4,35.7,16,16,0,0,1,12.6,10.9,16.1,16.1,0,0,1-7.9,19.1c-5.2,2.9-11.3,1.4-16.9.9A248.6,248.6,0,0,1,727.3,540c7.1,25.9,20.5,49.7,37.4,70.5,6.9,8.6,15.3,15.7,23.5,23.1a184.8,184.8,0,0,0,85.2,39.5c16.5,2.2,33.3,3.9,49.9,1.6,6.1-3.1,12.6-5.5,18.1-9.6,9.2-6.3,15.6-15.8,19.8-26a68.3,68.3,0,0,0-1.4-52.8c-3.4-7.8-9-14.4-14.5-20.8a15.9,15.9,0,0,1-4-17.1c2-5.8,7.7-8.8,11.4-13.3,17.1-20.5,20.2-51.6,6.7-74.8-5.6-10.6-14.8-19-25.5-24.3s-12.1-19.9-3.8-27.3c20.9-18.4,26.4-50.9,14.8-75.9-6.4-14.8-19.4-26.7-34.9-31.2-9.1-.9-18.2.4-27.2,1.3M498.5,324.6A177.9,177.9,0,0,0,439.4,337a185.5,185.5,0,0,0-92,78.1c-21.9,36.1-30.5,79.8-25.2,121.7,3.1,18.4,7.4,36.8,15.6,53.7s17.9,32,29.7,46c25.9,28.8,60.6,50,98.5,58.2,11.2,2.7,22.8,3.4,34.2,4.1,9.7.7,19.4-.7,29.1-1.5,14-1.1,27.7-5,40.9-9.8A186.7,186.7,0,0,0,690.8,524.3c-1.6-12.7-3-25.5-2.7-38.3a54.5,54.5,0,0,0-1.7-17,189.2,189.2,0,0,0-38.6-77.8c-11.4-13.5-24.3-25.8-39.2-35.4A181.7,181.7,0,0,0,498.5,324.6Z" fill="#f51d4e"/><path d="M900.9,339.5c8.2-2.9,18.1,2.2,20.4,10.6s-3.3,18.9-12.4,20.3-17.5-4.4-18.8-13A16.1,16.1,0,0,1,900.9,339.5Z" fill="#f51d4e" opacity="0.3"/><path d="M569,360c9.2-2.9,19.7,4.3,20.2,14s-6.5,17.5-15.4,17.5-16.3-6.7-16.5-15.2A16.1,16.1,0,0,1,569,360Z" fill="#f51d4e" opacity="0.3"/><path d="M444.6,392.2c8.8-3.6,19.8,2.5,21.4,11.9s-4.1,17.2-12.4,18.8A16.1,16.1,0,0,1,435,412.3C432.2,404.4,436.7,394.9,444.6,392.2Z" fill="#f51d4e" opacity="0.3"/><path d="M553.5,445.1c8.6-3,18.8,2.9,20.4,11.9s-4,17.7-12.6,19.1a16,16,0,0,1-7.8-31Z" fill="#f51d4e" opacity="0.3"/><path d="M780.5,454.3c8.5-3.5,19.1,2.1,21.1,11.1s-4,18.6-13.1,19.8-17.3-5-18.3-13.5A16,16,0,0,1,780.5,454.3Z" fill="#f51d4e" opacity="0.3"/><path d="M200,471.2c8.9-2.2,18.5,4.7,19.3,13.7s-5.8,17.4-14.5,17.9-16.9-6-17.3-14.6A16,16,0,0,1,200,471.2Z" fill="#f51d4e" opacity="0.3"/><path d="M358.6,483.6c10.2-2.6,21.8,6.3,21.3,17a16,16,0,0,1-10.4,14.7c-10,3.9-22.3-4.1-23.1-14.7A16.2,16.2,0,0,1,358.6,483.6Z" fill="#f51d4e" opacity="0.3"/><path d="M889.3,484.4c10.9-4.4,23.6,5.9,22.7,17.3a16,16,0,0,1-13.8,14.9c-10.5,1.6-21-8.7-19.3-19.3A16.1,16.1,0,0,1,889.3,484.4Z" fill="#f51d4e" opacity="0.3"/><path d="M614.6,506.1c8.3-3.3,18.5,1.8,20.9,10.4s-3,18.6-11.8,20.3a16,16,0,0,1-9.1-30.6Z" fill="#f51d4e" opacity="0.3"/><path d="M467.5,514.8c8.8-2.8,18.9,3.6,20.2,12.7s-5.3,18.1-14.3,18.7-16.8-5.9-17.4-14.4A16,16,0,0,1,467.5,514.8Z" fill="#f51d4e" opacity="0.3"/><path d="M407.4,580a16.1,16.1,0,0,1,19,10c2.5,7.3.2,16.6-6.6,20.9a16.1,16.1,0,0,1-21.2-3.4C391.2,598.5,395.8,582.5,407.4,580Z" fill="#f51d4e" opacity="0.3"/><path d="M807.5,588.2c8.8-2.9,19.1,3.6,20.3,12.8s-5.4,18-14.4,18.5-16.6-5.7-17.3-14.1A16.1,16.1,0,0,1,807.5,588.2Z" fill="#f51d4e" opacity="0.3"/><path d="M908.1,609.1c9.2-3,19.8,4.1,20.5,13.8,1.5,7.7-3.1,16.2-10.7,18.5s-19.4-2.9-20.9-12.1S899.6,611.4,908.1,609.1Z" fill="#f51d4e" opacity="0.3"/><path d="M563.9,628.7c8.8-3.6,19.6,2.4,21.3,11.7s-4.5,18.2-13.4,19.1a16,16,0,0,1-7.8-30.9Z" fill="#f51d4e" opacity="0.3"/></svg>